<?xml version="1.0" encoding="utf-8"?>
<!-- Generator: Adobe Illustrator 24.0.1, SVG Export Plug-In . SVG Version: 6.00 Build 0)  -->
<svg version="1.1" id="Camada_1" xmlns="http://www.w3.org/2000/svg" xmlns:xlink="http://www.w3.org/1999/xlink" x="0px" y="0px"
	 viewBox="0 0 448 512" style="enable-background:new 0 0 448 512;" xml:space="preserve">
<style type="text/css">
	.st0{fill:url(#SVGID_1_);}
</style>
<linearGradient id="SVGID_1_" gradientUnits="userSpaceOnUse" x1="472.7415" y1="389.4697" x2="-64.3331" y2="79.3895">
	<stop  offset="4.741732e-07" style="stop-color:#EB1A29"/>
	<stop  offset="0.129" style="stop-color:#EC1930"/>
	<stop  offset="0.3113" style="stop-color:#EE1642"/>
	<stop  offset="0.5251" style="stop-color:#F31060"/>
	<stop  offset="0.7625" style="stop-color:#F8098A"/>
	<stop  offset="1" style="stop-color:#FF00BC"/>
</linearGradient>
<path class="st0" d="M448,336V48c0-26.5-21.5-48-48-48H96C43,0,0,43,0,96v320c0,53,43,96,96,96h320c17.7,0,32-14.3,32-31.1
	c0-11.7-6.6-21.5-16-27.1v-81.4C441.8,362.8,448,350.2,448,336z M143.1,128h192c9.7,0,16.9,7.2,16.9,16s-7.2,16-16,16H143.1
	c-7.9,0-15.1-7.2-15.1-16S135.2,128,143.1,128z M143.1,192h192c9.7,0,16.9,7.2,16.9,16s-7.2,16-16,16H143.1c-7.9,0-15.1-7.2-15.1-16
	S135.2,192,143.1,192z M384,448H96c-17.7,0-32-14.3-32-32s14.3-32,32-32h288V448z"/>
</svg>
