<?xml version="1.0" encoding="utf-8"?>
<!-- Generator: Adobe Illustrator 24.0.1, SVG Export Plug-In . SVG Version: 6.00 Build 0)  -->
<svg version="1.1" id="Camada_1" xmlns="http://www.w3.org/2000/svg" xmlns:xlink="http://www.w3.org/1999/xlink" x="0px" y="0px"
	 viewBox="0 0 576 512" style="enable-background:new 0 0 576 512;" xml:space="preserve">
<style type="text/css">
	.st0{fill:url(#SVGID_1_);}
</style>
<linearGradient id="SVGID_1_" gradientUnits="userSpaceOnUse" x1="561.8541" y1="390.5198" x2="-21.0305" y2="53.9911">
	<stop  offset="0" style="stop-color:#EB1A29"/>
	<stop  offset="1" style="stop-color:#FF00BC"/>
</linearGradient>
<path class="st0" d="M96,0c11.5,0,21.4,8.2,23.6,19.5l1.5,12.5h420.7c20.3,0,36.5,20.3,30.8,40.7l-54,192
	c-3.9,13.8-16.5,23.3-30.8,23.3H170.7l9.2,48H488c13.3,0,24,10.7,24,24s-10.7,24-24,24H159.1c-10.6,0-20.5-8.2-22.7-19.5L76.1,48H24
	C10.8,48,0,37.3,0,24S10.8,0,24,0H96z M128,464c0-26.5,21.5-48,48-48s48,21.5,48,48s-21.5,48-48,48S128,490.5,128,464z M512,464
	c0,26.5-21.5,48-48,48s-48-21.5-48-48s21.5-48,48-48S512,437.5,512,464z"/>
</svg>
