<svg id="Camada_1" data-name="Camada 1" xmlns="http://www.w3.org/2000/svg" viewBox="0 0 640 512"><defs><style>.cls-1{fill:#cb99e8;}</style></defs><title>chalkboard-user-solid</title><path class="cls-1" d="M592,0H208c-26.5,0-48,22.25-48,49.63V96a120.74,120.74,0,0,1,63.1,17.81V64h352V352h-64V304a16,16,0,0,0-16-16h-96a16,16,0,0,0-16,16v48H287.3a160.32,160.32,0,0,1,50.76,64H592c26.54,0,48-22.2,48-49.6V49.63C640,22.25,618.5,0,592,0ZM160,320a96,96,0,0,0,0-192c-53.9,0-96,42.1-96,96A95.45,95.45,0,0,0,160,320Zm32,32H128A128,128,0,0,0,0,480a32,32,0,0,0,32,32H288a32,32,0,0,0,32-32A128,128,0,0,0,192,352Z" transform="translate(0 0)"/></svg>