<?xml version="1.0" encoding="utf-8"?>
<!-- Generator: Adobe Illustrator 24.0.1, SVG Export Plug-In . SVG Version: 6.00 Build 0)  -->
<svg version="1.1" id="Camada_1" xmlns="http://www.w3.org/2000/svg" xmlns:xlink="http://www.w3.org/1999/xlink" x="0px" y="0px"
	 viewBox="0 0 512 512" style="enable-background:new 0 0 512 512;" xml:space="preserve">
<style type="text/css">
	.st0{fill:url(#SVGID_1_);}
</style>
<linearGradient id="SVGID_1_" gradientUnits="userSpaceOnUse" x1="384.46" y1="378.8875" x2="-39.2326" y2="134.2684">
	<stop  offset="4.741732e-07" style="stop-color:#EB1A29"/>
	<stop  offset="1" style="stop-color:#FF00BC"/>
</linearGradient>
<path class="st0" d="M256,32C114.6,32,0,125.1,0,240c0,49.6,21.4,95,57,130.7C44.5,421.1,2.7,466,2.2,466.5
	c-2.3,2.3-2.9,5.7-1.5,8.7c1.3,3,4,4.8,7.3,4.8c66.3,0,115.1-31.8,140.6-51.4c32.6,12.3,69,19.4,107.4,19.4
	c141.4,0,255.1-93.1,255.1-208S397.4,32,256,32z"/>
</svg>
