<svg width="18" height="17" viewBox="0 0 18 17" fill="none" xmlns="http://www.w3.org/2000/svg">
<path fill-rule="evenodd" clip-rule="evenodd" d="M7.46957 2.7774C6.14973 5.90717 6.45209 5.66202 3.65815 5.8693C2.78118 5.93448 1.59927 6.03912 1.03183 6.1017L0 6.21571L2.38575 8.30269C4.07989 9.78477 4.7426 10.4863 4.67184 10.7231C4.4837 11.3525 3.35918 16.1818 3.35918 16.3602C3.35918 16.4585 4.53033 15.8209 5.96159 14.9437C7.39284 14.0664 8.6471 13.3486 8.74875 13.3486C8.8506 13.3486 10.1011 14.0586 11.5279 14.9264C12.9546 15.7942 14.122 16.431 14.122 16.3417C14.122 16.2524 13.8142 14.8925 13.4379 13.3195C12.8416 10.8262 12.7906 10.4196 13.0387 10.1453C13.1952 9.97232 14.2573 9.03037 15.3988 8.05196C17.8024 5.99188 17.8726 6.12701 14.2752 5.89282C10.9792 5.67836 11.3488 5.94843 10.0116 2.7774C9.36741 1.24988 8.79539 0 8.74058 0C8.68577 0 8.11374 1.24988 7.46957 2.7774Z" fill="#F62459"/>
</svg>
