<svg width="30" height="28" viewBox="0 0 30 28" fill="none" xmlns="http://www.w3.org/2000/svg">
<rect width="30" height="28" rx="4.58491" fill="#F62459"/>
<path fill-rule="evenodd" clip-rule="evenodd" d="M13.4696 8.7774C12.1497 11.9072 12.4521 11.662 9.65815 11.8693C8.78118 11.9345 7.59927 12.0391 7.03183 12.1017L6 12.2157L8.38575 14.3027C10.0799 15.7848 10.7426 16.4863 10.6718 16.7231C10.4837 17.3525 9.35918 22.1818 9.35918 22.3602C9.35918 22.4585 10.5303 21.8209 11.9616 20.9437C13.3928 20.0664 14.6471 19.3486 14.7487 19.3486C14.8506 19.3486 16.1011 20.0586 17.5279 20.9264C18.9546 21.7942 20.122 22.431 20.122 22.3417C20.122 22.2524 19.8142 20.8925 19.4379 19.3195C18.8416 16.8262 18.7906 16.4196 19.0387 16.1453C19.1952 15.9723 20.2573 15.0304 21.3988 14.052C23.8024 11.9919 23.8726 12.127 20.2752 11.8928C16.9792 11.6784 17.3488 11.9484 16.0116 8.7774C15.3674 7.24988 14.7954 6 14.7406 6C14.6858 6 14.1137 7.24988 13.4696 8.7774Z" fill="white"/>
</svg>
