<svg width="40" height="40" viewBox="0 0 40 40" fill="none" xmlns="http://www.w3.org/2000/svg">
<path fill-rule="evenodd" clip-rule="evenodd" d="M5.37036 0.178439C4.92878 0.413454 4.74917 0.816817 4.74761 1.57712L4.74636 2.22191H4.10032C3.32439 2.22191 2.99316 2.3661 2.73509 2.8162C2.20949 3.73305 2.8653 4.56658 4.1122 4.56658H4.74636V5.20074C4.74636 5.95807 4.9151 6.33267 5.37192 6.58942C6.27876 7.09915 7.09104 6.44295 7.09104 5.20074V4.56658H7.71941C8.96522 4.56658 9.60172 3.78534 9.12208 2.84512C8.89152 2.3933 8.50582 2.22191 7.71941 2.22191H7.09104V1.59353C7.09104 0.35132 6.28752 -0.309567 5.37036 0.178439ZM22.2525 0.209389C21.5932 0.658161 21.6277 0.267458 21.7917 5.41364C21.868 7.80857 21.8653 8.26985 21.7747 8.35629C21.7155 8.41272 20.2251 9.43219 18.4627 10.6217C16.7003 11.8113 15.1479 12.9002 15.013 13.0417C14.5094 13.5696 14.6407 14.4321 15.2779 14.7799C15.4391 14.8679 17.2415 15.3539 19.2834 15.8599C21.3252 16.3658 23.035 16.819 23.0831 16.867C23.1311 16.915 23.6006 18.6834 24.1265 20.7968C25.0113 24.3522 25.1003 24.6571 25.3179 24.8797C25.7753 25.3476 26.5341 25.3607 26.9563 24.9079C27.0671 24.789 28.1323 23.2498 29.3234 21.4874C30.5146 19.7249 31.5356 18.2347 31.5925 18.1756C31.6802 18.0847 32.2413 18.0858 35.2787 18.1826C37.3769 18.2496 38.9641 18.269 39.109 18.2294C39.4255 18.1431 39.8161 17.6998 39.8811 17.3529C39.9966 16.7378 39.9963 16.7375 37.0008 13.7322L34.1786 10.9009L34.3317 10.6008C34.4159 10.4357 35.289 8.72558 36.272 6.80036C37.9466 3.52078 38.0569 3.27881 38.0214 2.96353C37.9473 2.30608 37.3912 1.85168 36.7597 1.93257C36.5497 1.95946 35.1679 2.6255 32.7683 3.8563C30.7496 4.89171 29.0789 5.73892 29.0554 5.73892C29.0321 5.73892 27.7822 4.50445 26.2779 2.99565C23.1511 -0.140593 22.9605 -0.272521 22.2525 0.209389ZM14.4364 3.92993C13.6376 4.35502 13.6385 5.51485 14.438 5.96417C15.4514 6.53369 16.5612 5.39301 15.98 4.37932C15.7764 4.02426 15.3758 3.78502 14.9848 3.78502C14.833 3.78502 14.5863 3.85021 14.4364 3.92993ZM0.602842 8.30666C0.0433238 8.60443 -0.167072 9.32675 0.144379 9.88088C0.594871 10.6824 1.70211 10.692 2.1483 9.89815C2.71626 8.88759 1.62434 7.76316 0.602842 8.30666ZM9.43447 14.5591C8.87495 14.8569 8.66455 15.5792 8.976 16.1334C9.42649 16.9349 10.5337 16.9445 10.9799 16.1506C11.5479 15.1401 10.456 14.0156 9.43447 14.5591ZM14.8282 19.9245L12.6213 22.1325L14.3556 25.4832C15.3094 27.3262 16.1147 28.8596 16.1451 28.8908C16.1756 28.9221 17.5576 27.5856 19.2163 25.9209L22.2321 22.8942L21.7139 20.823L21.1956 18.7519L19.5947 18.3442C18.7142 18.1201 17.7781 17.8871 17.5145 17.8265L17.0352 17.7165L14.8282 19.9245ZM9.53795 25.2198L8.19702 26.5675L9.19406 28.4823C9.74248 29.5355 10.5415 31.073 10.9696 31.8991L11.748 33.4011L13.0884 32.0554L14.4288 30.7098L12.7855 27.5444C11.8817 25.8035 11.0829 24.2651 11.0105 24.1257L10.8788 23.8723L9.53795 25.2198ZM33.8191 24.5631C33.2596 24.8609 33.0492 25.5832 33.3607 26.1373C33.8112 26.9389 34.9184 26.9484 35.3646 26.1546C35.9325 25.144 34.8406 24.0196 33.8191 24.5631ZM3.32361 31.4319C1.61692 33.141 0.18377 34.6384 0.138752 34.7594C-0.117209 35.448 0.00854443 35.6422 2.03935 37.6944C4.24491 39.9232 4.53526 40.1118 5.24281 39.7761C5.37841 39.7118 6.50487 38.6431 7.74606 37.4014L10.0028 35.1436L8.31418 31.8693C7.38537 30.0684 6.58076 28.534 6.52605 28.4596C6.4375 28.3391 6.0908 28.6608 3.32361 31.4319ZM25.0657 31.4408C24.5061 31.7386 24.2957 32.4609 24.6072 33.015C25.0577 33.8166 26.1649 33.8261 26.6111 33.0323C27.1791 32.0218 26.0872 30.8973 25.0657 31.4408ZM35.3917 32.6701C32.6716 33.4016 31.75 36.8176 33.7368 38.8044C35.8423 40.91 39.4807 39.72 39.9362 36.7768C40.3366 34.19 37.9064 31.9939 35.3917 32.6701Z" fill="url(#paint0_linear_495_1371)"/>
<defs>
<linearGradient id="paint0_linear_495_1371" x1="19.9899" y1="0" x2="19.9899" y2="39.9063" gradientUnits="userSpaceOnUse">
<stop stop-color="#FB05A0"/>
<stop offset="1" stop-color="#F21162"/>
</linearGradient>
</defs>
</svg>
