<svg width="45" height="45" viewBox="0 0 45 45" fill="none" xmlns="http://www.w3.org/2000/svg">
<path fill-rule="evenodd" clip-rule="evenodd" d="M19.5274 0.147605C9.60629 1.51884 2.09554 8.81323 0.234144 18.8852C-0.207342 21.2743 -0.00608116 25.4055 0.68281 28.0973C3.66561 39.7512 15.4353 47.0132 27.2354 44.4805C38.4144 42.0812 46.0667 31.5255 44.8786 20.1433C43.7818 9.63538 35.4698 1.26573 24.9655 0.0919569C23.6772 -0.0519668 20.755 -0.0220838 19.5274 0.147605ZM23.3875 9.15862C24.1248 9.49356 24.4634 10.0453 26.0021 13.4201L27.4611 16.62L30.8066 17.1324C32.6466 17.4142 34.3184 17.7125 34.5217 17.7954C35.644 18.2531 36.2049 19.6269 35.7318 20.7594C35.6364 20.9876 34.9054 21.827 33.9643 22.7887C33.0817 23.6908 31.9376 24.8631 31.4219 25.3937L30.4842 26.3585L31.0813 30.0712C31.4637 32.4491 31.654 33.9138 31.6106 34.1454C31.3548 35.5084 29.7826 36.3522 28.5455 35.7903C28.3077 35.6823 26.8762 34.8993 25.3644 34.0503C23.8526 33.2014 22.5564 32.5068 22.4837 32.5068C22.4111 32.5068 20.9984 33.2506 19.3445 34.1596C17.6426 35.0952 16.151 35.8467 15.9076 35.8912C14.6097 36.1285 13.2974 35.071 13.2974 33.7876C13.2974 33.5414 13.5599 31.7705 13.8806 29.8522L14.4639 26.3644L11.8366 23.6467C8.925 20.6349 8.82247 20.4791 9.05858 19.4283C9.38106 17.9931 9.82951 17.7894 14.0894 17.144C15.8897 16.8713 17.4053 16.6076 17.4574 16.5581C17.5093 16.5085 18.2273 15.0281 19.0529 13.2681C20.648 9.86736 20.9889 9.3395 21.7464 9.09822C22.3049 8.9204 22.9121 8.94268 23.3875 9.15862Z" fill="white" fill-opacity="0.2"/>
</svg>
