<svg width="49" height="53" viewBox="0 0 49 53" fill="none" xmlns="http://www.w3.org/2000/svg">
<path fill-rule="evenodd" clip-rule="evenodd" d="M16.6256 0.302575C16.3021 0.626164 16.2395 0.995402 16.4435 1.37841C16.7046 1.86876 16.5277 1.85655 23.396 1.85996L29.8995 1.86327L30.2021 1.5607C30.4086 1.35419 30.5047 1.1544 30.5047 0.931637C30.5047 0.708872 30.4086 0.509088 30.2021 0.302575L29.8995 0H23.4139H16.9282L16.6256 0.302575ZM26.6964 4.73582L26.7264 5.64158L27.6839 5.67139L28.6414 5.7011V4.76563V3.83006H27.6539H26.6665L26.6964 4.73582ZM25.2037 7.65547C24.2708 7.94831 23.8797 8.65087 23.8797 10.0339C23.8797 10.9823 23.8832 10.9958 24.1126 10.9327C26.1236 10.3796 28.8551 10.3039 30.5471 10.7545C30.9974 10.8745 31.3817 10.9726 31.4011 10.9726C31.4205 10.9726 31.4363 10.5448 31.4363 10.0219C31.4363 8.85894 31.2149 8.30823 30.5776 7.8862L30.1581 7.60837L27.8211 7.58787C26.5358 7.57659 25.358 7.60702 25.2037 7.65547ZM25.8931 12.4626C22.0715 13.1931 19.1783 15.6349 17.8787 19.2266C17.3078 20.8042 17.2555 21.4628 17.2551 27.088L17.2547 32.1791L19.5579 32.212C22.1477 32.2491 22.3051 32.2885 23.0661 33.0902C23.7958 33.8591 23.8242 33.975 23.8608 36.3338L23.8939 38.4559L24.2836 38.9217C27.7486 43.0622 27.8493 48.9335 24.5168 52.5081L24.0584 52.9998L29.2224 52.9999L34.3865 53L34.3618 51.0072C34.3424 49.4331 34.0492 45.8264 32.9666 33.8389L31.5958 18.6635L31.7759 18.0921C32.1659 16.855 33.1157 16.2024 34.7209 16.0687L35.6287 15.9931L35.1688 15.4942C33.0055 13.1465 29.0602 11.8573 25.8931 12.4626ZM25.1644 15.2247C25.694 15.854 25.4931 16.3213 24.43 16.9333C22.5061 18.0408 21.3206 19.9187 21.0814 22.2374C20.9718 23.2991 20.7432 23.6222 20.1014 23.6222C19.4163 23.6222 19.165 23.2509 19.1917 22.2783C19.2528 20.0526 20.5349 17.4916 22.2676 16.1346C23.8708 14.8791 24.6639 14.6299 25.1644 15.2247ZM33.8488 18.2623C33.548 18.5219 33.4723 19.4171 33.6623 20.4701L33.723 20.8066H40.9057C47.6573 20.8066 48.0914 20.7957 48.1404 20.6254C48.1691 20.5257 48.2242 20.0385 48.2629 19.5424L48.3331 18.6406L48.0186 18.3261L47.7041 18.0116H40.9217H34.1393L33.8488 18.2623ZM33.9207 23.0126C33.9207 23.2011 34.4098 28.7298 35.0076 35.2987C35.6054 41.8676 36.0945 47.2566 36.0945 47.2743C36.0945 47.3122 45.719 47.3186 45.7266 47.2806C45.7874 46.9762 47.9531 22.8014 47.9244 22.7475C47.9016 22.7048 44.7415 22.6698 40.9018 22.6698H33.9207V23.0126ZM3.62765 34.1592C3.13999 34.356 3.07312 34.6146 3.07312 36.3052V37.8866H4.21645C5.29239 37.8866 5.37489 37.9016 5.6139 38.1407C5.98107 38.5078 5.96089 39.0518 5.56546 39.4473L5.26288 39.7498L3.88334 39.7528L2.50379 39.7558L1.95971 40.4513C-1.22069 44.5162 -0.426312 50.4016 3.5907 52.5356L4.36706 52.948L12.3294 52.9764C21.2022 53.0081 20.7138 53.0433 21.8805 52.2868C25.5554 49.9036 26.1283 44.3587 23.0995 40.4877L22.5222 39.7498H15.9628H9.40339L9.08498 39.4818C8.66584 39.1292 8.63686 38.5243 9.02059 38.1407L9.27462 37.8866H15.6456H22.0164V36.3804C22.0164 34.7311 21.931 34.3993 21.45 34.1802C21.1252 34.0322 3.99234 34.012 3.62765 34.1592ZM19.7955 43.834C20.1792 44.2177 20.1502 44.8225 19.7311 45.1752L19.4127 45.4432H12.5934C5.27727 45.4432 5.36247 45.4492 5.08391 44.9106C4.8718 44.5004 4.90037 44.2597 5.2044 43.8984L5.4724 43.5799H12.5069H19.5415L19.7955 43.834ZM17.0049 47.6487C17.277 47.9649 17.3226 48.3312 17.1343 48.6849C16.878 49.166 16.907 49.163 12.5142 49.1664L8.34298 49.1697L8.08895 48.9156C7.70346 48.5302 7.7341 47.9271 8.15727 47.571L8.47983 47.2997L12.6175 47.3289L16.7552 47.3582L17.0049 47.6487ZM36.198 50.7822V52.3946L36.5006 52.6972L36.8031 52.9998H40.9079H45.0127L45.3153 52.6972L45.6179 52.3946V50.7822V49.1697H40.9079H36.198V50.7822Z" fill="url(#paint0_linear_488_1368)"/>
<defs>
<linearGradient id="paint0_linear_488_1368" x1="24.1665" y1="0" x2="24.1665" y2="53" gradientUnits="userSpaceOnUse">
<stop stop-color="#FB05A2"/>
<stop offset="1" stop-color="#F2115F"/>
</linearGradient>
</defs>
</svg>
