<svg width="44" height="42" viewBox="0 0 44 42" fill="none" xmlns="http://www.w3.org/2000/svg">
<path fill-rule="evenodd" clip-rule="evenodd" d="M7.11742 0.134884C6.17968 0.383061 6.12143 0.488075 2.94836 7.64305C-0.310751 14.9921 -0.259578 14.8333 0.273079 15.9337C1.25902 17.9704 4.96198 18.1768 6.08657 16.2578C6.29577 15.9009 10.7072 0.528583 10.7422 0.0343828C10.7479 -0.0443774 7.44908 0.0470992 7.11742 0.134884ZM13.0002 0.0441254C13.0002 0.0636103 12.1163 3.23638 11.0361 7.0946C8.80144 15.0753 8.79815 15.0929 9.36824 16.1095C9.95617 17.158 10.7819 17.5441 12.4362 17.5441C14.0731 17.5441 14.9193 17.1547 15.485 16.1411C15.7767 15.6184 15.7982 15.4671 16.6458 7.93686C17.1207 3.71745 17.51 0.207491 17.5109 0.136935C17.5121 0.0381772 16.9938 0.00874469 15.2564 0.00874469C14.0155 0.00874469 13.0002 0.0246404 13.0002 0.0441254ZM19.7236 0.134987C19.7014 0.206568 19.333 3.4503 18.905 7.34319C18.1448 14.2572 18.1304 14.4353 18.285 15.0288C18.5608 16.088 19.2867 16.9322 20.2362 17.2985C21.0433 17.6098 23.2162 17.5812 23.9497 17.2496C24.947 16.799 25.6838 15.7673 25.863 14.5712C25.8925 14.3738 25.5592 11.028 25.1222 7.13613L24.3278 0.0600209L22.0458 0.0324342C20.272 0.0110007 19.7548 0.0337674 19.7236 0.134987ZM26.5388 0.136935C26.5396 0.207491 26.9282 3.71611 27.4023 7.93399C28.25 15.476 28.2693 15.6118 28.5631 16.1382C29.1306 17.1549 29.9749 17.5441 31.6135 17.5441C33.2678 17.5441 34.0935 17.158 34.6814 16.1095C35.252 15.0919 35.2489 15.0747 33.0138 7.10403C31.9334 3.25094 31.0494 0.0782752 31.0494 0.0535601C31.0494 0.0289475 30.0342 0.00874469 28.7933 0.00874469C27.0559 0.00874469 26.5376 0.0381772 26.5388 0.136935ZM33.3469 0.188211C33.3773 0.286867 34.3755 3.87364 35.5653 8.15858C37.9746 16.8353 37.8751 16.57 38.9434 17.1721C39.6494 17.5699 41.1002 17.6788 42.0431 17.4047C43.2011 17.068 44.0059 16 44 14.8076C43.997 14.2007 43.8668 13.8791 41.0951 7.6289C37.4603 -0.567189 37.9329 0.00874469 34.8429 0.00874469C33.413 0.00874469 33.2961 0.0227944 33.3469 0.188211ZM16.8001 18.0815C15.8488 19.2144 14.5441 19.6993 12.4511 19.6976C10.3554 19.6958 9.41316 19.3814 8.31472 18.3175L7.74781 17.7685L7.4257 18.1365C6.67819 18.9903 5.13191 19.6988 4.01614 19.6988H3.46287V30.2901C3.46287 39.916 3.47815 40.9032 3.63013 41.1202C3.95389 41.5824 4.31826 41.645 6.68824 41.645H8.89466L8.92204 33.1867L8.94942 24.7285L9.23369 24.4441L9.51797 24.1598L14.2324 24.1312C18.385 24.106 18.9847 24.1221 19.2633 24.2662C19.8888 24.5896 19.8712 24.3269 19.8712 33.3863V41.645H29.7195C40.3217 41.645 40.0425 41.6587 40.4196 41.1202C40.5715 40.9032 40.5868 39.916 40.5868 30.2901V19.6988H40.0335C38.9178 19.6988 37.3715 18.9903 36.624 18.1365L36.3019 17.7685L35.735 18.3175C34.6365 19.3814 33.6943 19.6958 31.5986 19.6976C29.5051 19.6993 28.2009 19.2145 27.249 18.0806L26.9016 17.667L26.2617 18.2656C25.0429 19.4058 23.9656 19.7406 21.7172 19.6783C19.7041 19.6225 18.6477 19.2154 17.5315 18.0652L17.1466 17.6687L16.8001 18.0815ZM34.816 24.4441L35.1003 24.7284L35.1289 29.4428C35.1608 34.6948 35.1661 34.6498 34.4815 34.9359C33.9695 35.1498 26.4885 35.1498 25.9766 34.9359C25.2921 34.6499 25.2973 34.6939 25.3292 29.4513C25.3568 24.9108 25.365 24.7372 25.5629 24.5173C25.9119 24.1296 26.0639 24.1176 30.355 24.139L34.5317 24.1598L34.816 24.4441Z" fill="url(#paint0_linear_488_1365)"/>
<defs>
<linearGradient id="paint0_linear_488_1365" x1="22" y1="0" x2="22" y2="41.645" gradientUnits="userSpaceOnUse">
<stop stop-color="#FB05A2"/>
<stop offset="1" stop-color="#F2115D"/>
</linearGradient>
</defs>
</svg>
